<?xml version="1.0" encoding="UTF-8" standalone="no"?>
<svg width="100%" height="100%" viewBox="0 0 5334 663" version="1.1" xmlns="http://www.w3.org/2000/svg" style="fill-rule:evenodd;clip-rule:evenodd;">
<g transform="matrix(1.3031,0,0,1.1250,-20.0,511.4)"><path fill="rgb(38,38,38)" fill-rule="nonzero" d="M187.20 7.20Q142.80 7.20 108.90-13.50Q75-34.20 56.70-71.70Q38.40-109.20 38.40-159.60Q38.40-210 56.70-247.20Q75-284.40 108.90-305.40Q142.80-326.40 187.20-326.40Q223.80-326.40 252.60-312.90Q281.40-299.40 300-273.60Q318.60-247.80 324.60-211.80L262.80-207.60Q255.60-238.20 235.80-254.40Q216-270.60 187.80-270.60Q147.60-270.60 124.50-240.90Q101.40-211.20 101.40-159.60Q101.40-108 124.50-78.30Q147.60-48.60 187.80-48.60Q216.60-48.60 237.30-65.70Q258-82.80 264.60-116.40L326.40-112.80Q320.40-76.20 301.20-49.50Q282-22.80 252.90-7.80Q223.80 7.20 187.20 7.20"/></g>
<g transform="matrix(0.618426,-5.69092e-32,-5.54116e-32,0.618426,381.447,66.5184)">
        <path d="M458.843,113.117C433.534,109.945 407.928,109.945 382.62,113.117L369.22,146.009C346.322,150.358 324.068,157.589 302.987,167.53L272.813,148.795C250.473,161.105 229.758,176.156 211.147,193.598L219.64,228.085C203.671,245.062 189.917,263.993 178.706,284.426L143.282,287.006C132.445,310.096 124.532,334.448 119.728,359.498L146.87,382.407C143.93,405.528 143.93,428.927 146.87,452.048L119.728,474.956C124.532,500.007 132.445,524.359 143.282,547.449L178.706,550.029C189.917,570.462 203.671,589.392 219.64,606.369L211.147,640.856C229.758,658.299 250.473,673.349 272.813,685.66L302.987,666.925C324.068,676.866 346.322,684.097 369.22,688.445L382.62,721.338C407.928,724.51 433.534,724.51 458.843,721.338L472.243,688.445C495.14,684.097 517.395,676.866 538.475,666.925L568.65,685.66C590.99,673.349 611.705,658.299 630.316,640.856L621.823,606.369C637.791,589.392 651.545,570.462 662.757,550.029L698.181,547.449C709.018,524.359 716.931,500.007 721.735,474.956L694.593,452.048C697.533,428.927 697.533,405.528 694.593,382.407L721.735,359.498C716.931,334.448 709.018,310.096 698.181,287.006L662.757,284.426C651.545,263.993 637.791,245.062 621.823,228.085L630.316,193.598C611.705,176.156 590.99,161.105 568.65,148.795L538.475,167.53C517.395,157.589 495.14,150.358 472.243,146.009L458.843,113.117ZM420.731,215.234C532.215,215.234 622.725,305.744 622.725,417.227C622.725,528.711 532.215,619.221 420.731,619.221C309.248,619.221 218.738,528.711 218.738,417.227C218.738,305.744 309.248,215.234 420.731,215.234Z" style="fill:rgb(38,38,38);stroke:rgb(38,38,38);stroke-width:9.7px;"/>
    </g>
<g transform="matrix(1.08069,0,0,1.08069,3.033,-128.696)">
        <path d="M866.933,678.581C847.153,661.868 837.66,638.794 838.451,609.357L896.211,619.218C898.742,635.345 908.387,644.996 919.89,652.363C935.304,662.318 956.354,667.295 983.04,667.295C1011.8,667.295 1034,662.318 1049.64,652.363C1065.29,642.408 1078.19,628.471 1083.71,610.552C1086.8,600.037 1088.31,578.417 1088.22,545.692C1080.12,552.233 1069.08,557.958 1059.85,562.782L1057.98,583.274C1044.58,589.231 1030.47,593.476 1016,595.91L1004.7,581.851C998.136,582.668 991.377,583.076 984.42,583.076C976.128,583.076 968.143,582.65 960.466,581.798L949.535,594.296C935.165,591.161 921.23,586.236 908.054,579.632L907.361,566.763C892.231,559.198 879.009,549.003 867.689,536.176L855.007,538.999C845.164,527.97 836.721,515.755 829.873,502.637L838.445,489.344C832.892,475.705 829.202,461.219 827.374,445.887L810.507,438.504C808.951,423.794 809.224,408.955 811.32,394.333L829.06,387.54C831.636,373.069 835.858,359.202 841.724,345.944L833.032,331.198C840.357,318.425 849.243,306.63 859.482,296.089L873.228,299.848C881.201,292.126 890.141,285.394 900.048,279.651C904.113,277.294 908.299,275.136 912.605,273.178L913.979,258.068C927.387,252.11 941.491,247.865 955.963,245.431L967.235,259.458C972.933,258.983 978.778,258.745 984.766,258.745C993.671,258.745 1002.25,259.387 1010.51,260.67L1022.43,247.046C1036.8,250.18 1050.73,255.106 1063.91,261.709L1064.97,281.338C1068.41,283.596 1071.76,286.023 1075.03,288.618C1080.88,292.635 1086.47,297.039 1091.74,301.802L1091.74,272.462L1149.02,272.462L1149.02,540.071C1149.02,589.448 1143.21,624.439 1131.6,645.046C1126.32,654.399 1119.65,662.86 1111.58,670.429L1112.41,670.429C1110.22,672.492 1107.93,674.502 1105.57,676.455L1109.24,687.513C1098.23,695.534 1085.59,706.399 1072.38,712.06L1056.26,704.304C1043.78,708.876 1030.62,712.201 1017.07,714.201L1009.66,727.965C994.686,729.423 978.66,729.322 963.685,727.863L956.11,714.201C942.562,712.201 929.395,708.876 916.922,704.304L900.959,711.791C887.741,706.13 875.478,695.415 864.466,687.393L866.933,678.581ZM870.483,420.104C870.237,493.412 915.366,538.578 990.287,538.578C1018.81,538.578 1042.74,529.071 1062.06,510.057C1081.39,491.043 1095.86,460.46 1095.86,419.844C1095.86,381.02 1081.1,352.521 1061.2,332.81C1041.3,313.099 1017.32,303.244 989.252,303.244C912.086,303.244 870.726,347.331 870.483,420.104Z" style="fill:rgb(38,38,38);stroke:rgb(38,38,38);stroke-width:5.55px;"/>
    </g>
<g transform="matrix(1.3900,0,0,1.1250,1232.6,511.4)"><path fill="rgb(38,38,38)" fill-rule="nonzero" d="M184.80 7.20Q142.20 7.20 111.60-7.20Q81-21.60 64.20-45.90Q47.40-70.20 45-100.20L106.80-103.80Q111.60-78 130.80-62.70Q150-47.40 185.40-47.40Q218.40-47.40 235.80-56.40Q253.20-65.40 253.20-84.60Q253.20-96.60 247.20-104.70Q241.20-112.80 224.70-118.50Q208.20-124.20 176.40-130.20Q129-139.20 102.30-151.50Q75.60-163.80 64.20-182.70Q52.80-201.60 52.80-228.60Q52.80-256.20 66.90-278.40Q81-300.60 108.60-313.50Q136.20-326.40 177-326.40Q219.60-326.40 247.20-311.70Q274.80-297 290.40-273.60Q306-250.20 310.20-222.60L248.40-219Q244.80-234.60 235.80-246.30Q226.80-258 211.80-264.90Q196.80-271.80 177-271.80Q145.20-271.80 130.20-259.20Q115.20-246.60 115.20-228.60Q115.20-214.20 122.40-205.50Q129.60-196.80 146.40-191.10Q163.20-185.40 192-180Q240.60-172.20 267-159.90Q293.40-147.60 304.20-129.60Q315-111.60 315-85.20Q315-56.40 298.50-35.70Q282-15 252.90-3.90Q223.80 7.20 184.80 7.20"/></g>
<rect x="1718.5" y="434.7" width="76.7" height="76.7" fill="rgb(38,38,38)"/>
<g transform="matrix(1,0,0,1.1250,1802.4,511.4)"><path fill="rgb(153,153,153)" fill-rule="nonzero" d="M185.40 0L124.80 0L124.80-336Q124.80-380.40 147-403.20Q169.20-426 216-426L319.20-426L319.20-375L222-375Q204-375 194.70-364.50Q185.40-354 185.40-335.40L185.40 0M314.40-268.20L40.80-268.20L40.80-319.20L314.40-319.20M475.20 7.20Q445.20 7.20 421.20-3.60Q397.20-14.40 383.10-34.20Q369-54 369-80.40Q369-121.20 393.90-144Q418.80-166.80 469.20-176.40L572.40-198Q572.40-235.20 556.20-253.80Q540-272.40 507.60-272.40Q477.60-272.40 460.80-258.60Q444-244.80 438-220.20L374.40-224.40Q383.40-270 418.20-298.20Q453-326.40 507.60-326.40Q568.80-326.40 600.90-291.60Q633-256.80 633-195.60L633-69.60Q633-58.80 637.80-54.30Q642.60-49.80 651.60-49.80L669.60-49.80L669.60 0Q666 0.60 657.90 1.20Q649.80 1.80 642 1.80Q620.40 1.80 605.40-5.40Q590.40-12.60 582.90-27.90Q575.40-43.20 574.20-66.60L583.80-66.60Q580.20-45.60 565.20-28.80Q550.20-12 526.80-2.40Q503.40 7.20 475.20 7.20M484.20-42.60Q513-42.60 532.80-52.80Q552.60-63 562.50-81.60Q572.40-100.20 572.40-125.40L572.40-150L483.60-132Q454.80-126.60 443.40-115.20Q432-103.80 432-85.20Q432-65.40 445.80-54Q459.60-42.60 484.20-42.60M785.40 0L724.80 0L724.80-319.20L780.60-319.20L782.40-235.80L775.80-240.60Q781.80-270 797.10-288.90Q812.40-307.80 834.60-317.10Q856.80-326.40 882-326.40Q918-326.40 941.40-310.50Q964.80-294.60 976.80-267.30Q988.80-240 988.80-205.80L988.80 0L928.20 0L928.20-190.20Q928.20-231.60 912.30-252.60Q896.40-273.60 864.60-273.60Q842.40-273.60 824.70-264Q807-254.40 796.20-235.50Q785.40-216.60 785.40-189M1329.60 0L1240.80 0Q1192.20 0 1168.50-22.50Q1144.80-45 1144.80-91.80L1144.80-394.20L1205.40-394.20L1205.40-94.80Q1205.40-72.60 1215.90-61.80Q1226.40-51 1247.40-51L1329.60-51L1329.60 0M1329.60-268.20L1044-268.20L1044-319.20L1329.60-319.20M1490.40 7.20Q1460.40 7.20 1436.40-3.60Q1412.40-14.40 1398.30-34.20Q1384.20-54 1384.20-80.40Q1384.20-121.20 1409.10-144Q1434-166.80 1484.40-176.40L1587.60-198Q1587.60-235.20 1571.40-253.80Q1555.20-272.40 1522.80-272.40Q1492.80-272.40 1476-258.60Q1459.20-244.80 1453.20-220.20L1389.60-224.40Q1398.60-270 1433.40-298.20Q1468.20-326.40 1522.80-326.40Q1584-326.40 1616.10-291.60Q1648.20-256.80 1648.20-195.60L1648.20-69.60Q1648.20-58.80 1653-54.30Q1657.80-49.80 1666.80-49.80L1684.80-49.80L1684.80 0Q1681.20 0.60 1673.10 1.20Q1665 1.80 1657.20 1.80Q1635.60 1.80 1620.60-5.40Q1605.60-12.60 1598.10-27.90Q1590.60-43.20 1589.40-66.60L1599-66.60Q1595.40-45.60 1580.40-28.80Q1565.40-12 1542-2.40Q1518.60 7.20 1490.40 7.20M1499.40-42.60Q1528.20-42.60 1548-52.80Q1567.80-63 1577.70-81.60Q1587.60-100.20 1587.60-125.40L1587.60-150L1498.80-132Q1470-126.60 1458.60-115.20Q1447.20-103.80 1447.20-85.20Q1447.20-65.40 1461-54Q1474.80-42.60 1499.40-42.60M1876.80 7.20Q1834.20 7.20 1803.60-7.20Q1773-21.60 1756.20-45.90Q1739.40-70.20 1737-100.20L1798.80-103.80Q1803.60-78 1822.80-62.70Q1842-47.40 1877.40-47.40Q1910.40-47.40 1927.80-56.40Q1945.20-65.40 1945.20-84.60Q1945.20-96.60 1939.20-104.70Q1933.20-112.80 1916.70-118.50Q1900.20-124.20 1868.40-130.20Q1821-139.20 1794.30-151.50Q1767.60-163.80 1756.20-182.70Q1744.80-201.60 1744.80-228.60Q1744.80-256.20 1758.90-278.40Q1773-300.60 1800.60-313.50Q1828.20-326.40 1869-326.40Q1911.60-326.40 1939.20-311.70Q1966.80-297 1982.40-273.60Q1998-250.20 2002.20-222.60L1940.40-219Q1936.80-234.60 1927.80-246.30Q1918.80-258 1903.80-264.90Q1888.80-271.80 1869-271.80Q1837.20-271.80 1822.20-259.20Q1807.20-246.60 1807.20-228.60Q1807.20-214.20 1814.40-205.50Q1821.60-196.80 1838.40-191.10Q1855.20-185.40 1884-180Q1932.60-172.20 1959-159.90Q1985.40-147.60 1996.20-129.60Q2007-111.60 2007-85.20Q2007-56.40 1990.50-35.70Q1974-15 1944.90-3.90Q1915.80 7.20 1876.80 7.20M2152.80 90L2107.80 90L2107.80 39L2146.80 39Q2163 39 2171.40 33.90Q2179.80 28.80 2184 17.40L2194.20-10.80L2174.40-10.80L2058-319.20L2122.80-319.20L2213.40-67.80L2298-319.20L2362.80-319.20L2235.60 36Q2226 64.80 2206.20 77.40Q2186.40 90 2152.80 90"/></g>
<rect x="4213.2" y="434.7" width="76.7" height="76.7" fill="rgb(38,38,38)"/>
<g transform="matrix(1,0,0,1.1250,4289.9,511.4)"><path fill="rgb(38,38,38)" fill-rule="nonzero" d="M108.60 0L48 0L48-319.20L103.80-319.20L105.60-235.80L99-240.60Q105-270 120.30-288.90Q135.60-307.80 157.80-317.10Q180-326.40 205.20-326.40Q241.20-326.40 264.60-310.50Q288-294.60 300-267.30Q312-240 312-205.80L312 0L251.40 0L251.40-190.20Q251.40-231.60 235.50-252.60Q219.60-273.60 187.80-273.60Q165.60-273.60 147.90-264Q130.20-254.40 119.40-235.50Q108.60-216.60 108.60-189M523.80 0L463.20 0L463.20-336Q463.20-380.40 485.40-403.20Q507.60-426 554.40-426L657.60-426L657.60-375L560.40-375Q542.40-375 533.10-364.50Q523.80-354 523.80-335.40L523.80 0M652.80-268.20L379.20-268.20L379.20-319.20L652.80-319.20M895.80-19.20L835.20-19.20L835.20-335.40Q835.20-354 824.70-364.50Q814.20-375 795.60-375L722.40-375L722.40-426L802.20-426Q848.40-426 872.10-402.30Q895.80-378.60 895.80-332.40L895.80-19.20M1003.20 0L710.40 0L710.40-51L1003.20-51"/></g>
</svg>